# xmcd CD database file
#
# Track frame offsets:
#	182
#	14382
#	29547
#	45922
#	58495
#	76845
#	90445
#	104022
#	118355
#	131207
#
# Disc length: 2070 seconds
#
# Revision: 2
# Processed by: cddbd v1.5.2PL0 Copyright (c) Steve Scherf et al.
# Submitted via: CDex 1.79
#
DISCID=8708140a
DTITLE=Connie Smith - Connie Smith
DYEAR=1998
DGENRE=Country
TTITLE0=How Long
TTITLE1=Lonesome
TTITLE2=Hearts Like Ours
TTITLE3=You Can`t Take Back A Teardrop
TTITLE4=Looking For A Reason
TTITLE5=Love`s Not Everything
TTITLE6=Just Let Me Know
TTITLE7=Your Light
TTITLE8=When It Comes To You
TTITLE9=A Tale From Tahrarrie
EXTD=YEAR: 1998
EXTT0=
EXTT1=
EXTT2=
EXTT3=
EXTT4=
EXTT5=
EXTT6=
EXTT7=
EXTT8=
EXTT9=
PLAYORDER=
